<svg xmlns="http://www.w3.org/2000/svg" viewBox="-49 141 512 512"><linearGradient id="a" x1="-33" x2="451" y1="400" y2="400" gradientUnits="userSpaceOnUse"><stop offset="0" stop-color="#FF884B"/><stop offset=".35" stop-color="#FF634C"/><stop offset=".655" stop-color="#FE4A4F"/><stop offset="1" stop-color="#FE4840"/></linearGradient><path fill="url(#a)" d="M431 144c-11 0-20 9-20 20v447.8c0 1.6-.3 4.2-1.6 4.2h-319l25.7-58.7c1.8.2 3.6 0 5.4 0 34.5 0 62.5-28.2 62.5-62.6 0-9.2-2-18.1-5.6-26l55-49.8c4.1.9 8.1 1.4 12.5 1.4 32.7 0 59.1-26.7 59.1-59.4 0-10.9-2.6-21.1-7.8-29.9l30.7-57.8c2.4.3 5 .5 7.5.5 15 0 29.1-5.8 39.7-16.4 10.6-10.6 16.4-24.7 16.4-39.6 0-30.9-25.1-56.1-56-56.1-15 0-29 5.8-39.6 16.4s-16.4 24.7-16.4 39.6c0 13.9 5.1 26.6 13.5 36.4l-26.8 50.8c-6.2-2.2-12.9-3.4-19.8-3.4-32.7 0-59.4 26.6-59.4 59.4 0 13.3 4.4 25.6 11.8 35.5L151 439.4c-8.8-4.7-18.8-7.4-29.5-7.4C87 432 59 460 59 494.5c0 18.3 7.9 35.3 20.4 46.7L46.7 616H-13c-11 0-20 9-20 20s9 20 20 20h422.4c23.5 0 41.6-20.4 41.6-44.2V164c0-11-9-20-20-20zm-106.9 62.3c3-3 7.1-4.7 11.4-4.7 8.9 0 16.1 7.2 16.1 16.1 0 4.3-1.7 8.3-4.7 11.4-3 3-7.1 4.7-11.4 4.7-8.9 0-16.1-7.2-16.1-16.1 0-4.3 1.7-8.4 4.7-11.4zm-77.8 135.2c10.7 0 19.4 8.7 19.4 19.4s-8.7 19.4-19.4 19.4-19.4-8.7-19.4-19.4 8.7-19.4 19.4-19.4zM121.6 472c12.4 0 22.5 10.1 22.5 22.5S134 517 121.6 517s-22.5-10.1-22.5-22.5 10.1-22.5 22.5-22.5z"/></svg>